# xmcd
#
# Track frame offsets: 
#        150
#        15929
#        30425
#        46303
#        62753
#        84977
#        102885
#        119329
#        136722
#        154359
#        169772
#        187301
#        204166
#        215869
#        229799
#        243311
#        258758
#        273137
#        289041
#        305210
#
# Disc length: 4265 seconds
#
# Revision: 2
# Processed by: cddbd v1.5.2PL0 Copyright (c) Steve Scherf et al.
# Submitted via: ExactAudioCopy v1.0b1
#
DISCID=1210a714
DTITLE=Demis Roussos - The Very Best
DYEAR=1900
DGENRE=Pop
TTITLE0=It's Five O'Clock
TTITLE1=Rain And Tears
TTITLE2=We Shall Dance
TTITLE3=Forever And Ever
TTITLE4=Spring, Summer, Winter and Fall
TTITLE5=Godbye My Love Goodbye
TTITLE6=Velvet Mornings
TTITLE7=I Want To Live
TTITLE8=My Reason
TTITLE9=Lovely Lady Of Arcadia
TTITLE10=My Frienfs The Wind
TTITLE11=My Only Fascination
TTITLE12=From Souvenirs To Souvenirs
TTITLE13=Someday Somewhere
TTITLE14=Perdona Me
TTITLE15=Lost In Love
TTITLE16=Happy To Be On An Island In The Sun
TTITLE17=Gypsy Lady
TTITLE18=The Wedding Song
TTITLE19=End Of The World
EXTD=
EXTT0=
EXTT1=
EXTT2=
EXTT3=
EXTT4=
EXTT5=
EXTT6=
EXTT7=
EXTT8=
EXTT9=
EXTT10=
EXTT11=
EXTT12=
EXTT13=
EXTT14=
EXTT15=
EXTT16=
EXTT17=
EXTT18=
EXTT19=
PLAYORDER=
